<svg width="274" height="7" viewBox="0 0 274 7" fill="none" xmlns="http://www.w3.org/2000/svg">
<path d="M1 6L6.44 1L11.88 6L17.32 1L22.76 6L28.2 1L33.64 6L39.08 1L44.52 6L49.96 1L55.4 6L60.84 1L66.28 6L71.72 1L77.16 6L82.6 1L88.04 6L93.48 1L98.92 6L104.36 1L109.8 6L115.24 1L120.68 6L126.12 1L131.56 6L137 1L142.44 6L147.88 1L153.32 6L158.76 1L164.2 6L169.64 1L175.08 6L180.52 1L185.96 6L191.4 1L196.84 6L202.28 1L207.72 6L213.16 1L218.6 6L224.04 1L229.48 6L234.92 1L240.36 6L245.8 1L251.24 6L256.68 1L262.12 6L267.56 1L273 6" stroke="#CCCCCC"/>
</svg>
